<svg width="96" height="96" viewBox="0 0 96 96" fill="none" xmlns="http://www.w3.org/2000/svg">
  <circle cx="48" cy="48" r="46" fill="#FFF2D0"/>
  <circle cx="48" cy="49" r="24" fill="#FFFBF1"/>
  <ellipse cx="31" cy="36" rx="8" ry="10" fill="#FFB2B2"/>
  <ellipse cx="65" cy="36" rx="8" ry="10" fill="#FFB2B2"/>
  <circle cx="40" cy="49" r="3" fill="#5A3333"/>
  <circle cx="56" cy="49" r="3" fill="#5A3333"/>
  <path d="M44 57H52" stroke="#E36A6A" stroke-width="2.6" stroke-linecap="round"/>
  <path d="M40 61C42.5 63 53.5 63 56 61" stroke="#E36A6A" stroke-width="2.2" stroke-linecap="round"/>
  <path d="M28 64L31 70L37 71L32 75L33 81L28 78L23 81L24 75L19 71L25 70L28 64Z" fill="#FFB2B2"/>
  <path d="M71 21L73 26L78 28L73 30L71 35L69 30L64 28L69 26L71 21Z" fill="#E36A6A"/>
</svg>
