<svg xmlns="http://www.w3.org/2000/svg" viewBox="0 0 640 360" role="img" aria-labelledby="title desc">
  <title id="title">Male Dog Sitter Character</title>
  <desc id="desc">Custom illustration of a male dog sitter holding a leash next to a happy dog.</desc>
  <defs>
    <linearGradient id="bgSkyMan" x1="0" y1="0" x2="1" y2="1">
      <stop offset="0%" stop-color="#E9F4FF" />
      <stop offset="100%" stop-color="#C7DCFF" />
    </linearGradient>
    <linearGradient id="shirtMan" x1="0" y1="0" x2="1" y2="1">
      <stop offset="0%" stop-color="#4F84D8" />
      <stop offset="100%" stop-color="#3568B8" />
    </linearGradient>
    <linearGradient id="dogBodyMan" x1="0" y1="0" x2="1" y2="1">
      <stop offset="0%" stop-color="#FFF7EC" />
      <stop offset="100%" stop-color="#F1E3D0" />
    </linearGradient>
  </defs>

  <rect width="640" height="360" fill="url(#bgSkyMan)" />
  <circle cx="106" cy="56" r="82" fill="#FFFFFF" opacity="0.45" />
  <circle cx="560" cy="82" r="96" fill="#FFFFFF" opacity="0.28" />
  <path d="M0 280C88 248 184 300 272 276C372 248 446 198 640 252V360H0Z" fill="#C9E0A8" />

  <g fill="#5E8ED1" opacity="0.3">
    <circle cx="80" cy="122" r="7" />
    <circle cx="66" cy="136" r="4.5" />
    <circle cx="80" cy="140" r="4.5" />
    <circle cx="94" cy="136" r="4.5" />
    <circle cx="108" cy="122" r="7" />
    <circle cx="546" cy="126" r="7" />
    <circle cx="532" cy="140" r="4.5" />
    <circle cx="546" cy="144" r="4.5" />
    <circle cx="560" cy="140" r="4.5" />
    <circle cx="574" cy="126" r="7" />
  </g>

  <g transform="translate(200 66)">
    <ellipse cx="110" cy="220" rx="95" ry="20" fill="#5B7EB5" opacity="0.2" />
    <path d="M62 112C76 90 100 78 124 78C149 78 174 90 188 112V228H62Z" fill="url(#shirtMan)" />
    <rect x="84" y="124" width="20" height="90" rx="10" fill="#F2C9A5" />
    <rect x="164" y="124" width="20" height="90" rx="10" fill="#F2C9A5" />
    <path d="M87 212C109 220 141 220 163 212V244H87Z" fill="#2E4E86" />
    <rect x="92" y="244" width="24" height="52" rx="12" fill="#1E3760" />
    <rect x="136" y="244" width="24" height="52" rx="12" fill="#1E3760" />
    <ellipse cx="102" cy="298" rx="24" ry="8" fill="#132848" opacity="0.45" />
    <ellipse cx="148" cy="298" rx="24" ry="8" fill="#132848" opacity="0.45" />

    <circle cx="125" cy="62" r="43" fill="#F7D9BE" />
    <path d="M84 58C88 29 106 13 125 13C145 13 164 28 167 56C151 43 133 38 125 38C116 38 99 43 84 58Z" fill="#2E3E58" />
    <circle cx="109" cy="64" r="3.8" fill="#3A2922" />
    <circle cx="141" cy="64" r="3.8" fill="#3A2922" />
    <path d="M114 82C120 88 130 88 136 82" fill="none" stroke="#3A2922" stroke-width="3.8" stroke-linecap="round" />
    <path d="M103 100C118 112 132 112 147 100" fill="none" stroke="#E8B690" stroke-width="4" stroke-linecap="round" />

    <path d="M184 156C230 146 256 154 280 178" fill="none" stroke="#4A5D7A" stroke-width="3" stroke-linecap="round" />
  </g>

  <g transform="translate(426 204)">
    <ellipse cx="78" cy="92" rx="70" ry="20" fill="#8EA47A" opacity="0.25" />
    <ellipse cx="72" cy="66" rx="58" ry="30" fill="url(#dogBodyMan)" />
    <circle cx="38" cy="56" r="24" fill="url(#dogBodyMan)" />
    <ellipse cx="33" cy="50" rx="8" ry="11" fill="#D6C2A7" />
    <ellipse cx="45" cy="50" rx="8" ry="11" fill="#D6C2A7" />
    <circle cx="30" cy="58" r="3" fill="#4E3A2F" />
    <circle cx="44" cy="58" r="3" fill="#4E3A2F" />
    <ellipse cx="37" cy="67" rx="5" ry="3.8" fill="#4E3A2F" />
    <path d="M32 74C35 77 39 77 42 74" fill="none" stroke="#4E3A2F" stroke-width="2.5" stroke-linecap="round" />
    <rect x="88" y="48" width="17" height="50" rx="8" fill="#EFE0CB" />
    <rect x="110" y="50" width="17" height="48" rx="8" fill="#EFE0CB" />
    <path d="M125 54C145 46 154 38 160 20" fill="none" stroke="#EFE0CB" stroke-width="8" stroke-linecap="round" />
    <circle cx="36" cy="43" r="2" fill="#4A5D7A" />
    <circle cx="39" cy="43" r="2" fill="#4A5D7A" />
  </g>
</svg>
